<svg id="svg5" xmlns="http://www.w3.org/2000/svg" viewBox="0 0 379.22 166.23"><defs><style>.cls-1,.cls-2{fill:none;stroke:#2c5aa0;}.cls-1{stroke-width:2px;}.cls-2{stroke-width:2.12px;}.cls-3,.cls-5,.cls-6{fill:#162d50;}.cls-4,.cls-5,.cls-6{isolation:isolate;}.cls-5{font-size:64px;}.cls-5,.cls-6{font-family:UniversforUniS55Rm-Regular, "Univers for UniS 55 Roman";}.cls-6{font-size:24px;}.cls-7{letter-spacing:-0.05em;}.cls-8{letter-spacing:-0.01em;}</style></defs><title>mls_logo_v1</title><g id="version_2" data-name="version 2"><path id="path56297" class="cls-1" d="M145.55,67.62h65.88" transform="translate(-8.81 -8.96)"/><path id="path57126" class="cls-1" d="M165.79,88.32c58.2,21.75,160.06,19.71,197.75,20" transform="translate(-8.81 -8.96)"/><path id="path57126-0" class="cls-2" d="M161.53,49.74c59.31-23.59,163.6-21.91,202-22.21" transform="translate(-8.81 -8.96)"/><path id="path67399-25" class="cls-1" d="M66.73,65.55,34.12,104" transform="translate(-8.81 -8.96)"/><path id="path67399-2" class="cls-1" d="M66.17,63.57,40.32,39.5" transform="translate(-8.81 -8.96)"/><path id="path67383" class="cls-1" d="M80.62,64.87H97.81" transform="translate(-8.81 -8.96)"/><path id="path67399-2-2" data-name="path67399-2" class="cls-1" d="M138.49,39.5,111.24,64.87" transform="translate(-8.81 -8.96)"/><path id="path67399-25-2" data-name="path67399-25" class="cls-1" d="M144.81,104,112.16,65.55" transform="translate(-8.81 -8.96)"/><circle id="path184-3-4-3-4-8-3" class="cls-3" cx="9.25" cy="40.78" r="4.25"/><circle id="path184-3-4-3-4-8-3-2" class="cls-3" cx="4.25" cy="79.4" r="4.25"/><circle id="path184-3-4-3-4-8-3-3-1-7" class="cls-3" cx="354.73" cy="99.44" r="4.25"/><circle id="path184-3-4-3-4-51" class="cls-3" cx="25.27" cy="95.04" r="8.5"/><circle id="path184-3-4-3-4-6" class="cls-3" cx="25.27" cy="58.68" r="8.5"/><circle id="path184-3-4-3-4-8-3-5" class="cls-3" cx="61.6" cy="151.88" r="4.25"/><circle id="path184-3-4-3-4-8-3-0" class="cls-3" cx="61.6" cy="4.29" r="4.25"/><circle id="path184-3-4-3-4-5" class="cls-3" cx="60.1" cy="130.39" r="8.5"/><circle id="path184-3-4-3-4-5-6" class="cls-3" cx="31.27" cy="124.39" r="8.5"/><circle id="path184-3-4-3-4-5-66" class="cls-3" cx="31.27" cy="30.32" r="8.5"/><circle id="path184-3-2" class="cls-3" cx="58.6" cy="97.4" r="14.17"/><circle id="path184" class="cls-3" cx="58.6" cy="55.78" r="14.17"/><circle id="path184-3-4-3-4-0" class="cls-3" cx="61.49" cy="24.32" r="8.5"/><circle id="path184-3-4-3-4-8-3-5-4-8" class="cls-3" cx="354.73" cy="18.58" r="4.25"/><circle id="path184-3-4-3-4-8-3-2-2" data-name="path184-3-4-3-4-8-3" class="cls-3" cx="151.97" cy="40.74" r="4.25"/><circle id="path184-3-4-3-4-8-3-2-3" data-name="path184-3-4-3-4-8-3-2" class="cls-3" cx="156.97" cy="79.36" r="4.25"/><circle id="path184-3-4-3-4-51-2" data-name="path184-3-4-3-4-51" class="cls-3" cx="135.96" cy="95" r="8.5"/><circle id="path184-3-4-3-4-6-2" data-name="path184-3-4-3-4-6" class="cls-3" cx="135.96" cy="58.64" r="8.5"/><circle id="path184-3-4-3-4-8-3-5-2" data-name="path184-3-4-3-4-8-3-5" class="cls-3" cx="99.62" cy="151.84" r="4.25"/><circle id="path184-3-4-3-4-8-3-0-2" data-name="path184-3-4-3-4-8-3-0" class="cls-3" cx="99.62" cy="4.25" r="4.25"/><circle id="path184-3-4-3-4-5-2" data-name="path184-3-4-3-4-5" class="cls-3" cx="101.12" cy="130.35" r="8.5"/><circle id="path184-3-4-3-4-5-6-2" data-name="path184-3-4-3-4-5-6" class="cls-3" cx="129.96" cy="124.35" r="8.5"/><circle id="path184-3-4-3-4-5-66-2" data-name="path184-3-4-3-4-5-66" class="cls-3" cx="129.96" cy="30.28" r="8.5"/><circle id="path184-3-2-2" data-name="path184-3-2" class="cls-3" cx="102.62" cy="97.36" r="14.17"/><circle id="path184-2" data-name="path184" class="cls-3" cx="102.62" cy="55.74" r="14.17"/><circle id="path184-3-4-3-4-0-2" data-name="path184-3-4-3-4-0" class="cls-3" cx="99.73" cy="24.28" r="8.5"/><g id="text34830" class="cls-4"><text class="cls-5" transform="translate(197.8 82.2)">MLS</text></g><g id="text34830-7" class="cls-4"><text class="cls-6" transform="translate(157.84 130.23)">Ma<tspan class="cls-7" x="36" y="0">c</tspan><tspan x="46.8" y="0">hine </tspan><tspan class="cls-8" x="102.82" y="0">L</tspan><tspan x="115.92" y="0">earning </tspan></text><text class="cls-6" transform="translate(157.84 160.23)">and Simulation Lab</text></g></g></svg>